<svg width="40" height="40" viewBox="0 0 40 40" fill="none" xmlns="http://www.w3.org/2000/svg">
<rect x="8" y="6" width="22" height="29" fill="white"/>
<path fill-rule="evenodd" clip-rule="evenodd" d="M40 20C40 31.0457 31.0457 40 20 40C8.95431 40 0 31.0457 0 20C0 8.95431 8.95431 0 20 0C31.0457 0 40 8.95431 40 20ZM21.4592 20.7831H25.028L25.5004 16.1926H21.4596V13.4884C21.4596 12.4741 22.1298 12.2359 22.6065 12.2359H25.5125V7.77587L21.5074 7.75911C17.0623 7.75911 16.0523 11.0886 16.0523 13.2149V16.1883H13.4807V20.7831H16.0523V33.8574H21.4592V20.7831Z" fill="#4267B2"/>
</svg>
