<svg width="40" height="40" viewBox="0 0 40 40" fill="none" xmlns="http://www.w3.org/2000/svg">
<rect width="40" height="40" rx="20" fill="url(#paint0_linear)"/>
<rect width="40" height="40" rx="20" fill="url(#paint1_linear)"/>
<path d="M28.3242 12.294C28.3242 11.3967 27.597 10.6721 26.703 10.6721C25.809 10.6721 25.0811 11.3967 25.0811 12.294C25.0811 13.188 25.809 13.9126 26.703 13.9126C27.597 13.9126 28.3242 13.188 28.3242 12.294Z" fill="#E4E4E4"/>
<path d="M30.4874 24.9545C30.4273 26.2709 30.2072 26.986 30.0244 27.4611C29.7788 28.0909 29.486 28.5412 29.011 29.0136C28.5412 29.486 28.0909 29.7782 27.4611 30.021C26.9861 30.2065 26.2682 30.4273 24.9518 30.4901C23.5288 30.5528 23.1071 30.5661 19.4983 30.5661C15.8929 30.5661 15.4679 30.5528 14.0448 30.4901C12.7285 30.4273 12.0139 30.2065 11.5389 30.021C10.9058 29.7782 10.4588 29.486 9.9864 29.0136C9.51069 28.5412 9.21781 28.0909 8.97563 27.4611C8.79279 26.986 8.56932 26.2709 8.51257 24.9545C8.44322 23.5314 8.43051 23.1031 8.43051 19.5017C8.43051 15.8929 8.44322 15.4679 8.51257 14.0448C8.56932 12.7285 8.79279 12.0139 8.97563 11.5349C9.21781 10.9057 9.51069 10.4581 9.9864 9.98569C10.4588 9.51403 10.9058 9.22111 11.5389 8.97562C12.0139 8.78948 12.7285 8.57196 14.0448 8.50927C15.4679 8.44652 15.8929 8.4305 19.4983 8.4305C23.1071 8.4305 23.5288 8.44652 24.9518 8.50927C26.2682 8.57196 26.9861 8.78948 27.4611 8.97562C28.0909 9.22111 28.5412 9.51403 29.011 9.98569C29.486 10.4581 29.7788 10.9057 30.0244 11.5349C30.2072 12.0139 30.4273 12.7285 30.4874 14.0448C30.5534 15.4679 30.5694 15.8929 30.5694 19.5017C30.5694 23.1031 30.5534 23.5314 30.4874 24.9545ZM32.9179 13.9341C32.8519 12.4956 32.625 11.5129 32.2881 10.6569C31.9452 9.76888 31.4855 9.0163 30.7329 8.26373C29.9837 7.5145 29.2311 7.0548 28.3431 6.70789C27.4838 6.37428 26.5043 6.14476 25.0652 6.08206C23.6261 6.01266 23.1665 5.99999 19.4983 5.99999C15.8335 5.99999 15.3705 6.01266 13.9314 6.08206C12.4956 6.14476 11.5169 6.37428 10.6536 6.70789C9.76888 7.0548 9.01631 7.5145 8.26708 8.26373C7.51451 9.0163 7.05481 9.76888 6.70854 10.6569C6.37494 11.5129 6.14811 12.4956 6.07871 13.9341C6.01601 15.3732 6 15.8335 6 19.5017C6 23.1665 6.01601 23.6261 6.07871 25.0652C6.14811 26.501 6.37494 27.4831 6.70854 28.3431C7.05481 29.2278 7.51451 29.9837 8.26708 30.7329C9.01631 31.4821 9.76888 31.9452 10.6536 32.2915C11.5169 32.625 12.4956 32.8519 13.9314 32.9179C15.3705 32.984 15.8335 33 19.4983 33C23.1665 33 23.6261 32.984 25.0652 32.9179C26.5043 32.8519 27.4838 32.625 28.3431 32.2915C29.2311 31.9452 29.9837 31.4821 30.7329 30.7329C31.4855 29.9837 31.9452 29.2278 32.2881 28.3431C32.625 27.4831 32.8519 26.501 32.9179 25.0652C32.984 23.6261 33 23.1665 33 19.5017C33 15.8335 32.984 15.3732 32.9179 13.9341Z" fill="#E4E4E4"/>
<path d="M19.4993 23.998C17.0154 23.998 14.9998 21.9857 14.9998 19.5018C14.9998 17.0139 17.0154 14.9991 19.4993 14.9991C21.9839 14.9991 24.0021 17.0139 24.0021 19.5018C24.0021 21.9857 21.9839 23.998 19.4993 23.998ZM19.4993 12.5652C15.6704 12.5652 12.5693 15.6729 12.5693 19.5018C12.5693 23.3274 15.6704 26.4318 19.4993 26.4318C23.3282 26.4318 26.4326 23.3274 26.4326 19.5018C26.4326 15.6729 23.3282 12.5652 19.4993 12.5652Z" fill="#E4E4E4"/>
<defs>
<linearGradient id="paint0_linear" x1="0" y1="0" x2="41.1246" y2="38.8082" gradientUnits="userSpaceOnUse">
<stop stop-color="#EC011C"/>
<stop offset="0.473068" stop-color="#BC01AD"/>
<stop offset="1" stop-color="#EC011D"/>
</linearGradient>
<linearGradient id="paint1_linear" x1="40" y1="1.17647" x2="-1.08919" y2="38.8108" gradientUnits="userSpaceOnUse">
<stop stop-color="#B901B5"/>
<stop offset="0.513505" stop-color="#F30107"/>
<stop offset="1" stop-color="#FEB41C"/>
</linearGradient>
</defs>
</svg>
