<svg width="40" height="40" viewBox="0 0 40 40" fill="none" xmlns="http://www.w3.org/2000/svg">
<rect x="9" y="6" width="23" height="29" fill="white"/>
<path fill-rule="evenodd" clip-rule="evenodd" d="M40 20C40 31.0457 31.0457 40 20 40C8.95431 40 0 31.0457 0 20C0 8.95431 8.95431 0 20 0C31.0457 0 40 8.95431 40 20ZM31.9497 29.8551V21.6096C31.9497 17.1941 29.5917 15.1391 26.4465 15.1391C23.9063 15.1391 22.7733 16.5367 22.138 17.5142V15.4767H17.3567C17.4209 16.8254 17.3567 29.8548 17.3567 29.8548H22.1376V21.8246C22.1376 21.3935 22.17 20.9668 22.2959 20.6595C22.6424 19.7995 23.4271 18.9114 24.748 18.9114C26.4789 18.9114 27.1692 20.2306 27.1692 22.1622V29.8551H31.9497ZM22.138 17.5142V17.5613H22.1062C22.1108 17.5532 22.1167 17.5449 22.1228 17.5366C22.1281 17.5292 22.1334 17.5218 22.138 17.5142ZM9.65017 11.0299C9.65017 9.61949 10.7201 8.54601 12.3554 8.54601C13.9911 8.54601 14.9962 9.61949 15.0279 11.0299C15.0279 12.4103 13.9911 13.5148 12.3237 13.5148H12.2927C10.6891 13.5148 9.65017 12.4103 9.65017 11.0299ZM14.7135 29.8551H9.93432V15.4767H14.7135V29.8551Z" fill="#0077B5"/>
</svg>
