<svg width="40" height="40" viewBox="0 0 40 40" fill="none" xmlns="http://www.w3.org/2000/svg">
<rect x="9" y="6" width="23" height="29" fill="white"/>
<path fill-rule="evenodd" clip-rule="evenodd" d="M40 20C40 31.0457 31.0457 40 20 40C8.95431 40 0 31.0457 0 20C0 8.95431 8.95431 0 20 0C31.0457 0 40 8.95431 40 20ZM29.5049 15.1252C30.4718 15.0104 31.3938 14.7534 32.2508 14.3733C31.6102 15.332 30.7998 16.1737 29.865 16.8475C29.8743 17.0522 29.8789 17.2586 29.8789 17.4657C29.8789 23.7836 25.0702 31.068 16.277 31.068C13.5774 31.068 11.064 30.2769 8.94946 28.92C9.32274 28.9646 9.70421 28.987 10.0893 28.987C12.3296 28.987 14.3907 28.223 16.0271 26.9406C13.9347 26.9017 12.1695 25.5195 11.5613 23.6207C11.853 23.6763 12.1521 23.7059 12.4608 23.7059C12.8961 23.7059 13.3193 23.6478 13.72 23.538C11.5335 23.0991 9.88497 21.1671 9.88497 18.8508C9.88497 18.8309 9.88497 18.8105 9.88533 18.7902C10.5296 19.1492 11.2672 19.3642 12.0505 19.3888C10.7684 18.5317 9.92383 17.0679 9.92383 15.4097C9.92383 14.5337 10.1598 13.712 10.5713 13.0061C12.9293 15.8992 16.452 17.8023 20.4251 18.0016C20.3431 17.6515 20.3007 17.2868 20.3007 16.9121C20.3007 14.2724 22.4416 12.1315 25.0812 12.1315C26.457 12.1315 27.6995 12.7119 28.5716 13.6407C29.66 13.4264 30.6836 13.0289 31.6073 12.4809C31.2497 13.5979 30.4921 14.5337 29.5049 15.1252Z" fill="#1DA1F2"/>
</svg>
