<svg width="40" height="40" viewBox="0 0 40 40" fill="none" xmlns="http://www.w3.org/2000/svg">
<rect x="7" y="6" width="26" height="29" fill="white"/>
<path fill-rule="evenodd" clip-rule="evenodd" d="M40 20C40 31.0457 31.0457 40 20 40C8.9543 40 0 31.0457 0 20C0 8.9543 8.9543 0 20 0C31.0457 0 40 8.9543 40 20ZM13.3088 11.901H26.6914C29.317 11.901 31.4455 14.0295 31.4455 16.6551V23.3451C31.4455 25.9706 29.317 28.0991 26.6914 28.0991H13.3088C10.6832 28.0991 8.55469 25.9707 8.55469 23.3451V16.6551C8.55469 14.0295 10.6831 11.901 13.3088 11.901ZM17.2168 23.3108L23.4762 20.3255C23.6645 20.2358 23.6678 19.9689 23.4814 19.8746L17.222 16.7026C17.055 16.6179 16.8572 16.7394 16.8572 16.9269V23.0842C16.8572 23.269 17.0499 23.3905 17.2168 23.3108Z" fill="#FF0000"/>
</svg>
